<svg width="16" height="16" xmlns:svg="http://www.w3.org/2000/svg"> <path d="M 5,1 A 4,4 0 0 0 1,5 V 6.859375 H 3.0273438 A 1,1 0 0 1 4,6 1,1 0 0 1 4.9902344,6.859375 H 7.0742188 V 1 Z M 9.1210938,1 V 6.859375 H 11.027344 A 1,1 0 0 1 12,6 1,1 0 0 1 12.990234,6.859375 H 15 V 5 A 4,4 0 0 0 11,1 Z M 1,8.90625 V 11 a 4,4 0 0 0 4,4 H 7.0742188 V 13.876953 A 4,4 0 0 1 5.171875,12.828125 1,1 0 0 1 6.5859375,11.414062 2,2 0 0 0 7.0742188,11.763672 V 8.90625 H 5 V 9 A 1,1 0 0 1 3,9 V 8.90625 Z m 8.1210938,0 v 2.732422 a 2,2 0 0 0 0.2929687,-0.22461 1,1 0 0 1 1.4140625,1.414063 4,4 0 0 1 -1.7070312,0.990234 V 15 H 11 a 4,4 0 0 0 4,-4 V 8.90625 H 13 V 9 A 1,1 0 0 1 11,9 V 8.90625 Z" style="fill:#8da5f3" /> </svg>